<?xml version="1.0" encoding="utf-8"?>
<!-- Generator: Adobe Illustrator 20.0.0, SVG Export Plug-In . SVG Version: 6.00 Build 0)  -->
<svg version="1.1" id="Layer_1" xmlns="http://www.w3.org/2000/svg" xmlns:xlink="http://www.w3.org/1999/xlink" x="0px" y="0px"
	 viewBox="0 0 100 125" style="enable-background:new 0 0 100 125;" xml:space="preserve">
<path d="M32.6,57.6c1.6,0,3-0.7,3.9-1.9c1,1.1,2.3,1.9,3.9,1.9c1.6,0,3-0.7,3.9-1.9c1,1.1,2.3,1.9,3.9,1.9c1,0,1.9-0.3,2.6-0.8V66
	c0,3,2.3,5.4,5.2,5.4c2.9,0,5.2-2.4,5.2-5.4V50.1c3.3-3.2,7.7-16.4,7.7-20.2V27c0-0.6,0-1.5-12.2-13.8c-0.2-0.2-0.6-0.4-0.9-0.4
	H32.2c-0.2,0-0.3,0-0.5,0.1c-3.6,1.5-4.2,8.5-4.2,9.4v29.9C27.4,55.1,29.8,57.6,32.6,57.6z M32.5,15.4h22.9c5,5,10.2,10.6,11.1,11.9
	v2.6c0,3.7-3,11.5-5.1,15.7V32.1c0-0.7-0.6-1.3-1.3-1.3s-1.3,0.6-1.3,1.3V66c0,1.6-1.2,2.8-2.6,2.8c-1.4,0-2.6-1.3-2.6-2.8V52.2
	c0,0,0,0,0,0c0,0,0,0,0-0.1V41.3c0-0.7-0.6-1.3-1.3-1.3s-1.3,0.6-1.3,1.3v10.9c0,1.6-1.2,2.8-2.6,2.8c-1.4,0-2.6-1.3-2.6-2.8V41.6
	c0-0.7-0.6-1.3-1.3-1.3s-1.3,0.6-1.3,1.3v10.6c0,1.6-1.2,2.8-2.6,2.8c-1.4,0-2.6-1.3-2.6-2.8V41.3c0-0.7-0.6-1.3-1.3-1.3
	c-0.7,0-1.3,0.6-1.3,1.3v10.9c0,1.6-1.2,2.8-2.6,2.8c-1.4,0-2.6-1.3-2.6-2.8l0-29.8C30.2,19.9,31,16.3,32.5,15.4z"/>
<path d="M71.7,81.7h-6.3v-6c0-0.8-0.6-1.4-1.4-1.4H48.2c-0.8,0-1.4,0.6-1.4,1.4v6h-6.3c-0.8,0-1.4,0.6-1.4,1.4v8.2
	c0,0.8,0.6,1.4,1.4,1.4h4.3v3.9c0,0.8,0.6,1.4,1.4,1.4c0.8,0,1.4-0.6,1.4-1.4v-3.9h16.9v3.9c0,0.8,0.6,1.4,1.4,1.4s1.4-0.6,1.4-1.4
	v-3.9h4.3c0.8,0,1.4-0.6,1.4-1.4v-8.2C73.1,82.3,72.5,81.7,71.7,81.7z M49.6,77.2h13v4.6h-13V77.2z M70.3,89.9h-2.9v-1.3
	c0-0.8-0.6-1.4-1.4-1.4s-1.4,0.6-1.4,1.4v1.3H47.7v-1.3c0-0.8-0.6-1.4-1.4-1.4c-0.8,0-1.4,0.6-1.4,1.4v1.3h-2.9v-5.4h6.3H64h6.3
	C70.3,84.5,70.3,89.9,70.3,89.9z"/>
</svg>
