<?xml version="1.0" encoding="utf-8"?>
<!-- Generator: Adobe Illustrator 20.0.0, SVG Export Plug-In . SVG Version: 6.00 Build 0)  -->
<svg version="1.1" id="Layer_1" xmlns="http://www.w3.org/2000/svg" xmlns:xlink="http://www.w3.org/1999/xlink" x="0px" y="0px"
	 viewBox="0 0 100 125" style="enable-background:new 0 0 100 125;" xml:space="preserve">
<g>
	<path d="M46.5,57.5c0.8,0,1.5-0.7,1.5-1.5v-5c0-0.8-0.7-1.5-1.5-1.5S45,50.2,45,51v5C45,56.8,45.7,57.5,46.5,57.5z"/>
	<path d="M53.5,57.5c0.8,0,1.5-0.7,1.5-1.5v-5c0-0.8-0.7-1.5-1.5-1.5S52,50.2,52,51v5C52,56.8,52.7,57.5,53.5,57.5z"/>
	<path d="M62.1,58c-0.8-0.2-1.6,0.4-1.7,1.2c-0.2,1.2-0.7,2.1-1.3,3.2c-1.9,3.2-5.3,5.1-9,5.1c-2.8,0-5.5-1.1-7.5-3.1
		c-0.6-0.6-1.5-0.6-2.1,0s-0.6,1.5,0,2.1c2.6,2.6,6,4,9.6,4c4.7,0,9.2-2.5,11.6-6.6c0.8-1.3,1.4-2.5,1.7-4.1
		C63.4,58.9,62.9,58.2,62.1,58z"/>
	<path d="M21,82h58c0.8,0,1.5-0.7,1.5-1.5v-40c0-0.8-0.7-1.5-1.5-1.5H21c-0.8,0-1.5,0.7-1.5,1.5v40C19.5,81.3,20.2,82,21,82z
		 M22.5,42h55v37h-55V42z"/>
	<path d="M90.6,84h-5.1c0-0.2,0.1-0.3,0.1-0.5v-46c0-1.9-1.6-3.5-3.5-3.5H18c-1.9,0-3.5,1.6-3.5,3.5v46c0,0.2,0,0.3,0.1,0.5H9.4
		c-1,0-3.4,0-3.4,3.5c0,1.6,0.9,3.5,2.2,4.8c1.1,1.1,2.5,1.7,3.9,1.7c0.1,0,0.1,0,0.2,0h75.3l0,0c1.7,0,3.4-0.8,4.7-2.4
		c1-1.3,1.7-2.8,1.7-4.1C94,86.2,93.6,84,90.6,84z M17.5,37.5c0-0.3,0.2-0.5,0.5-0.5h64c0.3,0,0.5,0.2,0.5,0.5v46
		c0,0.3-0.2,0.5-0.5,0.5H18c-0.3,0-0.5-0.2-0.5-0.5V37.5z M90,89.7c-0.4,0.5-1.2,1.3-2.3,1.3l0,0l0,0H12.3c-0.7,0-1.4-0.2-2-0.8
		c-0.9-0.8-1.3-2-1.3-2.7c0-0.2,0-0.4,0-0.5c0.1,0,0.3,0,0.4,0H18h25.6c-0.1,0.2-0.1,0.3-0.1,0.5c0,0.8,0.7,1.5,1.5,1.5h10
		c0.8,0,1.5-0.7,1.5-1.5c0-0.2,0-0.3-0.1-0.5H82h8.6c0.2,0,0.3,0,0.4,0c0,0.1,0,0.2,0,0.5C91,88,90.7,88.9,90,89.7z"/>
</g>
</svg>
