<?xml version="1.0" encoding="utf-8"?>
<!-- Generator: Adobe Illustrator 20.0.0, SVG Export Plug-In . SVG Version: 6.00 Build 0)  -->
<svg version="1.1" id="Layer_1" xmlns="http://www.w3.org/2000/svg" xmlns:xlink="http://www.w3.org/1999/xlink" x="0px" y="0px"
	 viewBox="0 0 600 467" style="enable-background:new 0 0 600 467;" xml:space="preserve">
<style type="text/css">
	.st0{fill:#333333;}
	.st1{fill:#FFFFFF;}
	.st2{fill:none;stroke:#E8E8E8;stroke-width:5;stroke-linecap:round;stroke-linejoin:round;stroke-miterlimit:10;}
</style>
<rect class="st0" width="600" height="467"/>
<g>
	<path class="st1" d="M63.6,22.3l-0.9,2.3h-3.3L64.8,12h3.3l5.3,12.6H70l-0.9-2.3H63.6z M66.4,15.2l-1.8,4.7h3.6L66.4,15.2z"/>
	<path class="st1" d="M80.1,12c3.2,0,5.1,1.6,5.1,4.4c0,3-1.9,4.7-5.1,4.7h-2.3v3.5h-3.2V12L80.1,12L80.1,12z M77.8,18.5H80
		c1.4,0,2.2-0.7,2.2-2s-0.8-2-2.2-2h-2.1L77.8,18.5L77.8,18.5z"/>
	<path class="st1" d="M92.4,12c3.2,0,5.1,1.6,5.1,4.4c0,3-1.9,4.7-5.1,4.7h-2.3v3.5h-3.2V12L92.4,12L92.4,12z M90.1,18.5h2.1
		c1.4,0,2.2-0.7,2.2-2s-0.8-2-2.2-2h-2.1V18.5z"/>
</g>
<g>
	<path class="st1" d="M284.4,115.4v-12.6h3.2v12.6H284.4z"/>
	<path class="st1" d="M296,105.3v10h-3.2v-10H289v-2.6h10.8v2.6H296z"/>
	<path class="st1" d="M304.3,105.3v2.5h6v2.5h-6v2.5h6.9v2.5h-10.1v-12.6h9.9v2.5h-6.7V105.3z"/>
	<path class="st1" d="M322.1,115.4l-5.8-7.8v7.8h-3v-12.6h2.8l5.8,7.8v-7.8h3v12.6H322.1z"/>
</g>
<g>
	<path class="st1" d="M480.7,207.4c3.2,0,5.1,1.6,5.1,4.4c0,3-1.9,4.7-5.1,4.7h-2.3v3.5h-3.2v-12.6L480.7,207.4L480.7,207.4z
		 M478.4,213.9h2.1c1.4,0,2.2-0.7,2.2-2s-0.8-2-2.2-2h-2.1V213.9z"/>
	<path class="st1" d="M489.4,217.7l-0.9,2.3h-3.3l5.4-12.6h3.3l5.3,12.6h-3.4l-0.9-2.3H489.4z M492.1,210.6l-1.8,4.7h3.6
		L492.1,210.6z"/>
	<path class="st1" d="M511,209.4l-1.9,2.2c-0.8-1-2.1-1.6-3.2-1.6c-2,0-3.5,1.6-3.5,3.7c0,2.1,1.5,3.7,3.5,3.7
		c1.1,0,2.3-0.6,3.2-1.5l1.9,2c-1.4,1.4-3.3,2.3-5.2,2.3c-3.8,0-6.6-2.8-6.6-6.5c0-3.6,2.9-6.4,6.7-6.4
		C507.8,207.3,509.7,208.1,511,209.4z"/>
	<path class="st1" d="M517.4,215l-1.7,1.9v3.1h-3.2v-12.6h3.2v5.5l4.8-5.5h3.7l-4.7,5.2l5,7.4h-3.8L517.4,215z"/>
	<path class="st1" d="M528.8,217.7l-0.9,2.3h-3.3l5.4-12.6h3.3l5.3,12.6h-3.4l-0.9-2.3H528.8z M531.6,210.6l-1.8,4.7h3.6
		L531.6,210.6z"/>
	<path class="st1" d="M550.6,213.6v4.9c-1.4,1-3.5,1.6-5.2,1.6c-3.8,0-6.7-2.8-6.7-6.4c0-3.7,3-6.4,7-6.4c1.9,0,3.9,0.7,5.1,1.9
		l-1.8,2.2c-0.9-0.8-2.2-1.4-3.4-1.4c-2.1,0-3.7,1.6-3.7,3.7c0,2.1,1.6,3.8,3.7,3.8c0.6,0,1.5-0.2,2.2-0.6v-3.3H550.6z"/>
	<path class="st1" d="M556,209.9v2.5h6v2.5h-6v2.5h6.9v2.5h-10.1v-12.6h9.9v2.5H556V209.9z"/>
</g>
<g>
	<circle class="st1" cx="302.5" cy="140.3" r="2.4"/>
	<circle class="st1" cx="312.1" cy="140.3" r="2.4"/>
	<circle class="st1" cx="321.8" cy="140.3" r="2.4"/>
	<circle class="st1" cx="273.5" cy="140.3" r="2.4"/>
	<circle class="st1" cx="283.1" cy="140.3" r="2.4"/>
	<circle class="st1" cx="292.8" cy="140.3" r="2.4"/>
	<circle class="st1" cx="295.2" cy="147.6" r="2.4"/>
	<circle class="st1" cx="304.9" cy="147.6" r="2.4"/>
	<circle class="st1" cx="314.6" cy="147.6" r="2.4"/>
	<circle class="st1" cx="266.2" cy="147.6" r="2.4"/>
	<circle class="st1" cx="275.9" cy="147.6" r="2.4"/>
	<circle class="st1" cx="285.5" cy="147.6" r="2.4"/>
	<path class="st1" d="M244.5,159.6h74.9v4.8h-74.9V159.6z M309.7,169.3v2.4h-24.2v-2.4H309.7z M275.9,169.3v2.4h-24.2v-2.4H275.9z
		 M319.4,220.1h-74.9v-33.9h74.9V220.1z M324.2,181.4L324.2,181.4h-4.8h-79.8l0,0l0,0v-4.8h84.6V181.4z M343.6,171.7h-14.5h-4.8
		h-4.8v-2.4l0,0h4.8h19.3V162c0-1.3-1.1-2.4-2.4-2.4s-2.4-1.1-2.4-2.4c0-1.3,1.1-2.4,2.4-2.4c0.1,0,0.2,0,0.2,0c3.9,0.1,7,3.3,7,7.2
		v62.8h9.7v-38.6h4.8v-14.5h-9.7v-2.4h4.8v-41.1h-6.6h-6.5h-79.8l-25.5,28.1v13h2.4v2.4h-7.3v14.5h4.8v38.7h79.8h4.8h19.3
		L343.6,171.7L343.6,171.7z M320.7,154.8h-73.2l19.8-21.8h73.2L320.7,154.8z"/>
</g>
<path class="st1" d="M100.9,126.5H52.8c-9.2,0-16.7-7.5-16.7-16.7V61.7c0-9.2,7.5-16.7,16.7-16.7h48.1c9.2,0,16.7,7.5,16.7,16.7
	v48.1C117.6,119,110.1,126.5,100.9,126.5z"/>
<g>
	<path class="st0" d="M76.6,72.7c-7.2,0-13.1,5.9-13.1,13.1c0,7.2,5.9,13.1,13.1,13.1S89.7,93,89.7,85.8
		C89.7,78.5,83.8,72.7,76.6,72.7z M76.6,93.3c-4.2,0-7.6-3.4-7.6-7.6c0-4.2,3.4-7.6,7.6-7.6s7.6,3.4,7.6,7.6
		C84.2,90,80.8,93.3,76.6,93.3z"/>
	<path class="st0" d="M105.1,73.9l-3.9-6.8c-1.4-2.5-4.5-3.5-7.2-2.3l-2,0.9c-1.7-1.3-3.6-2.4-5.6-3.2l-0.2-2.1
		c-0.3-2.9-2.7-5.1-5.6-5.1h-7.8c-2.9,0-5.3,2.2-5.6,5.1L67,62.6c-2,0.8-3.9,1.9-5.6,3.2l-1.9-1c-2.6-1.2-5.8-0.3-7.2,2.3l-3.9,6.8
		c-1.4,2.5-0.8,5.7,1.7,7.4l1.8,1.2c-0.1,1-0.2,2.1-0.2,3.2c0,1.1,0.1,2.1,0.2,3.2l-1.8,1.2c-2.4,1.7-3.1,4.9-1.7,7.4l3.9,6.8
		c1.4,2.5,4.5,3.5,7.2,2.3l2-0.9c1.7,1.3,3.6,2.4,5.6,3.2l0.2,2.2c0.3,2.9,2.7,5.1,5.6,5.1h7.8c2.9,0,5.3-2.2,5.6-5.1l0.2-2.1
		c2-0.8,3.9-1.9,5.6-3.2l2,0.9c2.6,1.2,5.8,0.3,7.2-2.3l3.9-6.8c1.4-2.5,0.8-5.7-1.7-7.4l-1.8-1.2c0.1-1,0.2-2.1,0.2-3.2
		c0-1.1-0.1-2.1-0.2-3.2l1.8-1.2C105.9,79.6,106.6,76.5,105.1,73.9z M100.4,94.9l-3.9,6.8c0,0.1-0.1,0.1-0.1,0.1l-5.2-2.4l-1.4,1.2
		c-1.9,1.8-4.2,3.1-6.8,3.9l-1.7,0.6l-0.5,5.7c0,0.1-0.1,0.1-0.1,0.1h-7.9c-0.1,0-0.1-0.1-0.1-0.1l-0.5-5.7l-1.7-0.6
		c-2.5-0.8-4.8-2.1-6.8-3.9l-1.4-1.2l-5.2,2.4c-0.1,0-0.1,0-0.1-0.1l-3.9-6.8c0-0.1,0-0.1,0-0.1l4.7-3.3l-0.3-1.8
		c-0.3-1.3-0.4-2.6-0.4-3.9s0.1-2.6,0.4-3.9l0.3-1.8l-4.7-3.2c-0.1,0-0.1-0.1,0-0.1L57,70c0-0.1,0.1-0.1,0.1-0.1l5.2,2.4l1.4-1.2
		c2-1.8,4.3-3.1,6.8-3.9l1.7-0.6l0.5-5.7c0-0.1,0.1-0.1,0.1-0.1h7.8c0.1,0,0.1,0.1,0.1,0.1l0.5,5.7l1.8,0.6c2.5,0.8,4.8,2.1,6.8,3.9
		l1.4,1.2l5.2-2.4c0.1,0,0.1,0,0.1,0.1l3.9,6.8c0,0.1,0,0.1,0,0.1l-4.7,3.3L96,82c0.3,1.3,0.4,2.6,0.4,3.9c0,1.3-0.1,2.6-0.4,3.9
		l-0.3,1.8L100.4,94.9L100.4,94.9C100.4,94.8,100.4,94.8,100.4,94.9z"/>
</g>
<g transform="translate(0,-952.36218)">
	<path class="st1" d="M514.2,1186c-0.3,0-0.7,0.1-1,0.3l-38.7,15.5c-0.8,0.2-1.5,1.1-1.5,1.9v49c0,0.9,0.7,1.8,1.6,2l38.5,17.3
		c0.7,0.5,1.6,0.5,2.3,0l38.5-17.3c0.9-0.2,1.6-1.1,1.5-2v-49c0-0.8-0.5-1.5-1.2-1.8c-14.4-5.7-24.9-10-39.2-15.7
		C514.7,1186,514.4,1186,514.2,1186z M548.1,1203.6l-14.3,5.7l-33.9-13.5l14.3-5.7l14,5.6 M494.6,1197.9l33.9,13.6l-14.3,5.7
		l-33.9-13.5L494.6,1197.9z M476.9,1206.5l35.3,14.1v46.6l-35.3-15.8L476.9,1206.5L476.9,1206.5z M551.5,1206.5v44.9l-15.7,7v-12.7
		c0-1.1-1.1-2.1-2.2-2c-1,0.1-1.8,1-1.7,2v14.4l-15.7,7v-46.6l15.7-6.3v12.8c0,1,0.9,2,2,2s2-1,2-2v-14.4L551.5,1206.5z"/>
</g>
<g>
	<line class="st2" x1="379.3" y1="200.8" x2="418.3" y2="221.2"/>
	<line class="st2" x1="380.9" y1="215.2" x2="431.4" y2="241.6"/>
	<line class="st2" x1="433.4" y1="229.1" x2="458.2" y2="242.1"/>
	<line class="st2" x1="453.5" y1="253.2" x2="463.3" y2="258.3"/>
</g>
<g>
	<line class="st2" x1="135.6" y1="86.7" x2="174.6" y2="107.1"/>
	<line class="st2" x1="137.1" y1="101" x2="187.6" y2="127.4"/>
	<line class="st2" x1="189.6" y1="114.9" x2="214.5" y2="127.9"/>
	<line class="st2" x1="209.8" y1="139" x2="219.5" y2="144.1"/>
</g>
<g>
	<path class="st1" d="M295.4,417.8h-0.2h-4.1v5.9h-5.4v-21.1h9.4c5.6,0,8.8,2.7,8.8,7.4c0,3.2-1.4,5.6-3.8,6.8l4.4,7h-6.1
		L295.4,417.8z M295.3,413.5c2.3,0,3.7-1.2,3.7-3.4c0-2.2-1.4-3.3-3.7-3.3h-4.1v6.7L295.3,413.5L295.3,413.5z"/>
	<path class="st1" d="M313,406.8v4.2h10.1v4.2H313v4.3h11.5v4.2h-16.9v-21.1h16.5v4.2L313,406.8L313,406.8z"/>
	<path class="st1" d="M332.8,419.8l-1.5,3.9h-5.5l9.1-21.1h5.5l8.9,21.1h-5.7l-1.5-3.9H332.8z M337.4,407.9l-3.1,7.8h6.1
		L337.4,407.9z"/>
	<path class="st1" d="M360.3,402.6c6.6,0,11.2,4.3,11.2,10.6c0,6.2-4.6,10.6-11.4,10.6h-8.9v-21.1h9.1V402.6z M356.6,419.4h3.8
		c3.3,0,5.6-2.5,5.6-6.2s-2.5-6.3-5.9-6.3h-3.6v12.5H356.6z"/>
	<path class="st1" d="M385.2,423.7h-5.3V417l-7.8-14.4h5.4l5.1,9.2l5-9.2h5.4l-7.7,14.3v6.8H385.2z"/>
	<path class="st1" d="M411.6,406.9v16.8h-5.4v-16.8H400v-4.3h18v4.3H411.6z"/>
	<path class="st1" d="M440.7,413.1c0,6.2-4.9,10.8-11.4,10.8s-11.4-4.6-11.4-10.8c0-6.2,4.9-10.7,11.4-10.7
		C435.8,402.4,440.7,407,440.7,413.1z M423.3,413.1c0,3.6,2.7,6.3,6,6.3s5.9-2.7,5.9-6.3s-2.6-6.2-5.9-6.2S423.3,409.6,423.3,413.1z
		"/>
	<path class="st1" d="M459.6,402.6c6.6,0,11.2,4.3,11.2,10.6c0,6.2-4.6,10.6-11.4,10.6h-8.9v-21.1h9.1V402.6z M455.9,419.4h3.8
		c3.3,0,5.6-2.5,5.6-6.2s-2.5-6.3-5.9-6.3h-3.6v12.5H455.9z"/>
	<path class="st1" d="M479,406.8v4.2h10.1v4.2H479v4.3h11.5v4.2h-16.9v-21.1h16.5v4.2L479,406.8L479,406.8z"/>
	<path class="st1" d="M503.2,402.6c5.4,0,8.5,2.7,8.5,7.4c0,4.9-3.1,7.8-8.5,7.8h-3.8v5.9H494v-21.1L503.2,402.6L503.2,402.6z
		 M499.4,413.5h3.6c2.4,0,3.7-1.2,3.7-3.4c0-2.2-1.4-3.3-3.7-3.3h-3.6V413.5z"/>
	<path class="st1" d="M528.8,419.2v4.5h-14.3v-21.1h5.4v16.6H528.8z"/>
	<path class="st1" d="M552.8,413.1c0,6.2-4.9,10.8-11.4,10.8s-11.4-4.6-11.4-10.8c0-6.2,4.9-10.7,11.4-10.7
		C548,402.4,552.8,407,552.8,413.1z M535.5,413.1c0,3.6,2.7,6.3,6,6.3s5.9-2.7,5.9-6.3s-2.6-6.2-5.9-6.2S535.5,409.6,535.5,413.1z"
		/>
	<path class="st1" d="M566.5,423.7h-5.3V417l-7.8-14.4h5.4l5.1,9.2l5-9.2h5.4l-7.7,14.3v6.8H566.5z"/>
</g>
<polyline class="st2" points="511.7,334.9 511.7,376 254.5,376 254.5,417.1 272,417.1 "/>
</svg>
