<?xml version="1.0" encoding="utf-8"?>
<!-- Generator: Adobe Illustrator 20.0.0, SVG Export Plug-In . SVG Version: 6.00 Build 0)  -->
<svg version="1.1" id="Layer_1" xmlns="http://www.w3.org/2000/svg" xmlns:xlink="http://www.w3.org/1999/xlink" x="0px" y="0px"
	 viewBox="0 0 100 125" style="enable-background:new 0 0 100 125;" xml:space="preserve">
<path d="M12.1,50H5.4c0-24.6,20-44.6,44.6-44.6V1.5c0-0.4,0.5-0.7,0.8-0.4l10.5,7.2c0.3,0.2,0.3,0.6,0,0.9l-10.5,7.2
	c-0.3,0.2-0.8,0-0.8-0.4v-3.9C29.1,12.1,12.1,29.1,12.1,50z M87.9,50c0,20.9-17,37.9-37.9,37.9V84c0-0.4-0.5-0.7-0.8-0.4l-10.5,7.2
	c-0.3,0.2-0.3,0.6,0,0.9l10.5,7.2c0.3,0.2,0.8,0,0.8-0.4v-3.9c24.6,0,44.6-20,44.6-44.6C94.6,50,87.9,50,87.9,50z M28.4,65.4l3-4.2
	c-1.1-1.8-1.8-3.6-2.3-5.5l-5.2-0.9c-1-0.2-1.7-1-1.7-1.9v-2.6v-2.6c0-1,0.7-1.8,1.7-2l5.1-0.8c0.5-1.9,1.2-3.8,2.3-5.6L28.2,35
	c-0.6-0.8-0.5-1.9,0.2-2.6l1.8-1.8l1.8-1.8c0.7-0.7,1.8-0.8,2.6-0.2l4.2,3c1.8-1.1,3.7-1.9,5.7-2.4l0.9-5.2c0.2-1,1-1.7,1.9-1.7h2.6
	h2.6c1,0,1.8,0.7,2,1.7l0.9,5.2c1.9,0.5,3.8,1.3,5.6,2.3l4.3-3c0.8-0.5,1.8-0.5,2.5,0.2l1.8,1.8l1.8,1.8c0.7,0.7,0.8,1.8,0.2,2.6
	l-3,4.3c1,1.8,1.8,3.6,2.3,5.6l5.2,0.9c1,0.2,1.7,1,1.7,1.9v2.6v2.6c0,1-0.7,1.8-1.7,2L71,55.4c-0.5,1.9-1.3,3.8-2.3,5.6l3,4.3
	c0.6,0.8,0.5,1.9-0.2,2.6l-1.8,1.8l-1.8,1.8c-0.7,0.7-1.8,0.8-2.6,0.2l-4.3-3c-1.7,1-3.6,1.8-5.4,2.3l-0.9,5.2c-0.2,1-1,1.7-1.9,1.7
	h-2.6h-2.6c-1,0-1.8-0.7-2-1.7l-0.9-5.1c-1.9-0.5-3.8-1.2-5.6-2.3l-4.3,3.1c-0.8,0.6-1.9,0.5-2.6-0.2l-1.8-1.8L28.6,68
	C28,67.3,27.9,66.2,28.4,65.4z M41.6,58.5c4.7,4.7,12.3,4.7,17,0s4.7-12.3,0-17s-12.3-4.7-17,0C36.9,46.1,36.9,53.8,41.6,58.5z
	 M55.2,55c2.8-2.8,2.8-7.3,0-10.1s-7.3-2.8-10.1,0c-2.8,2.8-2.8,7.3,0,10.1C47.9,57.8,52.4,57.8,55.2,55z"/>
</svg>
